/* XPM */
static char *result[] = {
/* columns rows colors chars-per-pixel */
"64 64 15 1 ",
"  c black",
". c #131225",
"X c #13223F",
"o c #525970",
"O c #7B7991",
"+ c #92829A",
"@ c #AFAFAF",
"# c #FF9D90",
"$ c #9F9EC6",
"% c #FEE4CD",
"& c #D2D0E4",
"* c #D8DDEF",
"= c #EAEAEA",
"- c #F3F5FD",
"; c white",
/* pixels */
"================================================================",
"================================================================",
"================================================================",
"================================================================",
"================================================================",
"================================================================",
"================================================================",
"================================================================",
"================================================================",
"================================================================",
"============================oooooooo============================",
"============================oooooooo============================",
"========================oooo**----**oooo========================",
"========================oooo**----**oooo========================",
"======================oo**----****----**oo======================",
"======================oo**----****----**oo======================",
"====================oo****XXXXXXXXXXXX****oo====================",
"====================oo****XXXXXXXXXXXX****oo====================",
"==================oo**XXXX************XXXX**oo==================",
"==================oo**XXXX************XXXX**oo==================",
"==================ooXX********************XXoo==================",
"==================ooXX********************XXoo==================",
"==================XX************************XX==================",
"==================XX************************XX==================",
"==================XX******$$********$$******XX==================",
"==================XX******$$********$$******XX==================",
"==================XX****$$************$$****XX==================",
"==================XX****$$************$$****XX==================",
"================XXXX****$$**$$**$$****$$****XXXX================",
"================XXXX****$$**$$**$$****$$****XXXX================",
"================XX****$$****$$**$$****$$******XX================",
"================XX****$$****$$**$$****$$******XX================",
"================XX****$$****$$****$$****XX****XX  ==============",
"================XX****$$****$$****$$****XX****XX  ==============",
"================XX****$$**********$$****XX$$**XX  ==============",
"================XX****$$**********$$****XX$$**XX  ==============",
"================XX****$$****$$****XX$$**XX$$**XX  ==============",
"================XX****$$****$$****XX$$**XX$$**XX  ==============",
"==============XX$$**$$$$****$$****$$XX**XX$$$$**XX==============",
"==============XX$$**$$$$****$$****$$XX**XX$$$$**XX==============",
"==============XX$$**$$XX**$$XX****$$XX$$**XX$$$$XX==============",
"==============XX$$**$$XX**$$XX****$$XX$$**XX$$$$XX==============",
"==============XXXX$$XXXX**$$XX$$****XX$$$$XXXXXXXX==============",
"==============XXXX$$XXXX**$$XX$$****XX$$$$XXXXXXXX==============",
"==============  ##XX##XX$$XX;;XX$$**XXXX$$$$XX##    ============",
"==============  ##XX##XX$$XX;;XX$$**XXXX$$$$XX##    ============",
"==============  %%%%%%XX$$XX..XX$$$$XX..XXXXXX%%  ==============",
"==============  %%%%%%XX$$XX..XX$$$$XX..XXXXXX%%  ==============",
"==============  ##%%##XXXX......XXXX....  ##%%##  ==============",
"==============  ##%%##XXXX......XXXX....  ##%%##  ==============",
"================      ..OOOOOO&&&&OOOOOO..      ================",
"================      ..OOOOOO&&&&OOOOOO..      ================",
"====================++..OOOOOO....OOOOOO..++    ================",
"====================++..OOOOOO....OOOOOO..++    ================",
"================@@@@++..OOOO........OOOO..++@@@@================",
"================@@@@++..OOOO........OOOO..++@@@@================",
"==============@@@@@@@@++................++@@@@@@@@==============",
"==============@@@@@@@@++................++@@@@@@@@==============",
"==============@@@@@@@@@@++++........++++@@@@@@@@@@==============",
"==============@@@@@@@@@@++++........++++@@@@@@@@@@==============",
"================@@@@@@@@@@@@++++++++@@@@@@@@@@@@================",
"================@@@@@@@@@@@@++++++++@@@@@@@@@@@@================",
"======================@@@@@@@@@@@@@@@@@@@@======================",
"======================@@@@@@@@@@@@@@@@@@@@======================"
};
