/* XPM */
static char *result[] = {
/* columns rows colors chars-per-pixel */
"64 64 25 1 ",
"  c black",
". c #131225",
"X c #13223F",
"o c #6E1F09",
"O c #282544",
"+ c #525970",
"@ c #7E7A7A",
"# c #439F20",
"$ c #FF8F63",
"% c #7B7991",
"& c #92829A",
"* c #9C9C99",
"= c #AFAFAF",
"- c #ED9185",
"; c #FF9D90",
": c #FCBCA7",
"> c #9F9EC6",
", c #9FBDCE",
"< c #FEE4CD",
"1 c #D2D0E4",
"2 c #D8DDEF",
"3 c #EAEAEA",
"4 c #EEEBE9",
"5 c #F3F5FD",
"6 c white",
/* pixels */
"3333333333333333333333333333333333333333333333333333333333333333",
"3333333333333333333333333333333333333333333333333333333333333333",
"3333333333333333333333333333333333333333333333333333333333333333",
"3333333333333333333333333333333333333333333333333333333333333333",
"3333333333333333333333333333333333333333333333333333333333333333",
"3333333333333333333333333333333333333333333333333333333333333333",
"3333333333333333333333333333333333333333333333333333333333333333",
"3333333333333333333333333333333333333333333333333333333333333333",
"3333333333333333333333333333333333333333333333333333333333333333",
"3333333333333333333333333333333333333333333333333333333333333333",
"33333333333333333333333333++++XXXX++++33333333333333333333333333",
"33333333333333333333333333++++XXXX++++33333333333333333333333333",
"3333333333333333333333++++2255++++5522++++3333333333333333333333",
"3333333333333333333333++++2255++++5522++++3333333333333333333333",
"33333333333333333333++22555522555522555522++33333333333333333333",
"33333333333333333333++22555522555522555522++33333333333333333333",
"33333333333333333333XX552222++++++++++2255XX33333333333333333333",
"33333333333333333333XX552222++++++++++2255XX33333333333333333333",
"333333333333333333XX>>++++>>2222222222>>++>>XX333333333333333333",
"333333333333333333XX>>++++>>2222222222>>++>>XX333333333333333333",
"333333333333333333XX++5522222222222222222255>>333333333333333333",
"333333333333333333XX++5522222222222222222255>>333333333333333333",
"333333333333333333XX++5555555522225555555522>>333333333333333333",
"333333333333333333XX++5555555522225555555522>>333333333333333333",
"333333333333333333++2222222222++++2222222222XX333333333333333333",
"333333333333333333++2222222222++++2222222222XX333333333333333333",
"333333333333333333XX>>222222++----++22222222XX333333333333333333",
"333333333333333333XX>>222222++----++22222222XX333333333333333333",
"333333333333333333  >>>>22XX--<<<<XX>>22++>>>>XX3333333333333333",
"333333333333333333  >>>>22XX--<<<<XX>>22++>>>>XX3333333333333333",
"3333333333333333  44  XXXXXX<<<<<<XXXX++--XX>>XX3333333333333333",
"3333333333333333  44  XXXXXX<<<<<<XXXX++--XX>>XX3333333333333333",
"33333333333333  44**44  <<oo<<<<<<<<oo<<XX++XX333333333333333333",
"33333333333333  44**44  <<oo<<<<<<<<oo<<XX++XX333333333333333333",
"33333333333333  44**44  <<$$<<<<<<<<$$<<++22++333333333333333333",
"33333333333333  44**44  <<$$<<<<<<<<$$<<++22++333333333333333333",
"33333333333333  44**44  XX<<<<----<<<<XX++22++333333333333333333",
"33333333333333  44**44  XX<<<<----<<<<XX++22++333333333333333333",
"33333333333333  44**44  66XXXXXXXXXXXX66%%++22333333333333333333",
"33333333333333  44**44  66XXXXXXXXXXXX66%%++22333333333333333333",
"33333333333333          ..66::::::::66..%%      3333333333333333",
"33333333333333          ..66::::::::66..%%      3333333333333333",
"33333333333333  ;;<<;;  11OO66666666OO11  ;;<<;;  33333333333333",
"33333333333333  ;;<<;;  11OO66666666OO11  ;;<<;;  33333333333333",
"333333333333    <<<<<<    OOOO####OOOO11  <<<<<<  33333333333333",
"333333333333    <<<<<<    OOOO####OOOO11  <<<<<<  33333333333333",
"33333333333333  ;;<<;;  ..OO##OOOO##OO..  ;;<<;;  33333333333333",
"33333333333333  ;;<<;;  ..OO##OOOO##OO..  ;;<<;;  33333333333333",
"3333333333333333      ..11OOOO6666OOOO11..      3333333333333333",
"3333333333333333      ..11OOOO6666OOOO11..      3333333333333333",
"3333333333333333  @@  ..1166666666666611..%%33333333333333333333",
"3333333333333333  @@  ..1166666666666611..%%33333333333333333333",
"3333333333333333      ....,,66666666,,....%%33333333333333333333",
"3333333333333333      ....,,66666666,,....%%33333333333333333333",
"3333333333333333======&&....,,,,,,,,....&&======3333333333333333",
"3333333333333333======&&....,,,,,,,,....&&======3333333333333333",
"33333333333333==========1111........1111==========33333333333333",
"33333333333333==========1111........1111==========33333333333333",
"33333333333333==============11111111==============33333333333333",
"33333333333333==============11111111==============33333333333333",
"3333333333333333================================3333333333333333",
"3333333333333333================================3333333333333333",
"3333333333333333333333====================3333333333333333333333",
"3333333333333333333333====================3333333333333333333333"
};
