/* XPM */
static char *result[] = {
/* columns rows colors chars-per-pixel */
"64 64 24 1 ",
"  c black",
". c #131225",
"X c #13223F",
"o c #6E1F09",
"O c #282544",
"+ c #525970",
"@ c #439F20",
"# c #FF8F63",
"$ c #7B7991",
"% c #92829A",
"& c #9C9C99",
"* c #AFAFAF",
"= c #ED9185",
"- c #FF9D90",
"; c #FCBCA7",
": c #9F9EC6",
"> c #9FBDCE",
", c #FEE4CD",
"< c #D2D0E4",
"1 c #D8DDEF",
"2 c #EAEAEA",
"3 c #EEEBE9",
"4 c #F3F5FD",
"5 c white",
/* pixels */
"2222222222222222222222222222222222222222222222222222222222222222",
"2222222222222222222222222222222222222222222222222222222222222222",
"2222222222222222222222222222222222222222222222222222222222222222",
"2222222222222222222222222222222222222222222222222222222222222222",
"2222222222222222222222222222222222222222222222222222222222222222",
"2222222222222222222222222222222222222222222222222222222222222222",
"2222222222222222222222222222222222222222222222222222222222222222",
"2222222222222222222222222222222222222222222222222222222222222222",
"2222222222222222222222222222++2222222222222222222222222222222222",
"2222222222222222222222222222++2222222222222222222222222222222222",
"22222222222222222222222222++11++22222222222222222222222222222222",
"22222222222222222222222222++11++22222222222222222222222222222222",
"222222222222222222222222XXXX++11++XXXX22222222222222222222222222",
"222222222222222222222222XXXX++11++XXXX22222222222222222222222222",
"22222222222222222222XXXX1144++44++1111XXXX2222222222222222222222",
"22222222222222222222XXXX1144++44++1111XXXX2222222222222222222222",
"222222222222222222XX::114411++1144++1111::XX22222222222222222222",
"222222222222222222XX::114411++1144++1111::XX22222222222222222222",
"2222222222222222XX::11114411++44++11111111XX22222222222222222222",
"2222222222222222XX::11114411++44++11111111XX22222222222222222222",
"2222222222222222XX1111111144++11++11111111::XX222222222222222222",
"2222222222222222XX1111111144++11++11111111::XX222222222222222222",
"2222222222222222XX11XX::11++11++111111111111XX222222222222222222",
"2222222222222222XX11XX::11++11++111111111111XX222222222222222222",
"22222222222222XX::XXXX111111++111111111111::XX222222222222222222",
"22222222222222XX::XXXX111111++111111111111::XX222222222222222222",
"22222222222222XXXX,,XX::111111111111111111::::XX2222222222222222",
"22222222222222XXXX,,XX::111111111111111111::::XX2222222222222222",
"2222222222222222XX,,XX::::::111111XX1111::11::XX2222222222222222",
"2222222222222222XX,,XX::::::111111XX1111::11::XX2222222222222222",
"222222222222222222XX,,XXXXXXXXXXXX11::11::1111XX2222222222222222",
"222222222222222222XX,,XXXXXXXXXXXX11::11::1111XX2222222222222222",
"222222222222222222XX,,oo,,++11++1111::1111::::XX2222222222222222",
"222222222222222222XX,,oo,,++11++1111::1111::::XX2222222222222222",
"222222222222222222XX,,##,,XX++XX1111::11XX::::::XX22222222222222",
"222222222222222222XX,,##,,XX++XX1111::11XX::::::XX22222222222222",
"22222222222222222222XX==,,++11++11::1111::XX::::XX22222222222222",
"22222222222222222222XX==,,++11++11::1111::XX::::XX22222222222222",
"2222222222222222222222XXXXXX++XX11XX1111::XXXX::XX22222222222222",
"2222222222222222222222XXXXXX++XX11XX1111::XXXX::XX22222222222222",
"2222222222222222222222OOXX11::XXXX;;XX11::XX22XX2222222222222222",
"2222222222222222222222OOXX11::XXXX;;XX11::XX22XX2222222222222222",
"2222222222            @@XXXXXX      ..XX::XX22222222222222222222",
"2222222222            @@XXXXXX      ..XX::XX22222222222222222222",
"22222222  3333333333OOXX1111  --,,--  XX::XX22222222222222222222",
"22222222  3333333333OOXX1111  --,,--  XX::XX22222222222222222222",
"222222  33&&&&&&&&&&OOXX::::  ,,,,,,  ::XX$$22222222222222222222",
"222222  33&&&&&&&&&&OOXX::::  ,,,,,,  ::XX$$22222222222222222222",
"22222222  333333333355XXXXXX  --,,--  XX....22222222222222222222",
"22222222  333333333355XXXXXX  --,,--  XX....22222222222222222222",
"2222222222          >>5555<<<<      ......%%22222222222222222222",
"2222222222          >>5555<<<<      ......%%22222222222222222222",
"2222222222222222****<<>>55<<<<<<..........%%****2222222222222222",
"2222222222222222****<<>>55<<<<<<..........%%****2222222222222222",
"22222222222222********<<OOOO<<OO........%%********22222222222222",
"22222222222222********<<OOOO<<OO........%%********22222222222222",
"22222222222222**********<<<<OOOO....%%%%**********22222222222222",
"22222222222222**********<<<<OOOO....%%%%**********22222222222222",
"2222222222222222************<<<<%%%%************2222222222222222",
"2222222222222222************<<<<%%%%************2222222222222222",
"2222222222222222222222********************2222222222222222222222",
"2222222222222222222222********************2222222222222222222222",
"2222222222222222222222222222222222222222222222222222222222222222",
"2222222222222222222222222222222222222222222222222222222222222222"
};
