/* XPM */
static char *result[] = {
/* columns rows colors chars-per-pixel */
"64 64 24 1 ",
"  c black",
". c #131225",
"X c #13223F",
"o c #6E1F09",
"O c #282544",
"+ c #49454E",
"@ c #525970",
"# c #FF8F63",
"$ c #7B7991",
"% c #92829A",
"& c #9C9C99",
"* c #AFAFAF",
"= c #ED9185",
"- c #FF9D90",
"; c #FCBCA7",
": c #9F9EC6",
"> c #9FBDCE",
", c #FEE4CD",
"< c #D2D0E4",
"1 c #D8DDEF",
"2 c #EAEAEA",
"3 c #EEEBE9",
"4 c #F3F5FD",
"5 c white",
/* pixels */
"2222222222222222222222222222222222222222222222222222222222222222",
"2222222222222222222222222222222222222222222222222222222222222222",
"2222222222222222222222222222222222222222222222222222222222222222",
"2222222222222222222222222222222222222222222222222222222222222222",
"2222222222222222222222222222222222222222222222222222222222222222",
"2222222222222222222222222222222222222222222222222222222222222222",
"2222222222222222222222222222222222222222222222222222222222222222",
"2222222222222222222222222222222222222222222222222222222222222222",
"2222222222222222222222222222222222@@2222222222222222222222222222",
"2222222222222222222222222222222222@@2222222222222222222222222222",
"22222222222222222222222222222222@@11@@22222222222222222222222222",
"22222222222222222222222222222222@@11@@22222222222222222222222222",
"22222222222222222222222222XXXX@@11@@XXXX222222222222222222222222",
"22222222222222222222222222XXXX@@11@@XXXX222222222222222222222222",
"2222222222222222222222XXXX1111@@44@@4411XXXX22222222222222222222",
"2222222222222222222222XXXX1111@@44@@4411XXXX22222222222222222222",
"22222222222222222222XX::1111@@4411@@114411::XX222222222222222222",
"22222222222222222222XX::1111@@4411@@114411::XX222222222222222222",
"22222222222222222222XX11111111@@44@@11441111::XX2222222222222222",
"22222222222222222222XX11111111@@44@@11441111::XX2222222222222222",
"222222222222222222XX::11111111@@11@@4411111111XX2222222222222222",
"222222222222222222XX::11111111@@11@@4411111111XX2222222222222222",
"222222222222222222XX111111111111@@11@@11::XX11XX2222222222222222",
"222222222222222222XX111111111111@@11@@11::XX11XX2222222222222222",
"222222222222222222XX::111111111111@@111111XXXX::XX22222222222222",
"222222222222222222XX::111111111111@@111111XXXX::XX22222222222222",
"2222222222222222XX::::111111111111111111::XX,,XXXX22222222222222",
"2222222222222222XX::::111111111111111111::XX,,XXXX22222222222222",
"2222222222222222XX::11::1111XX111111::::::XX,,XX2222222222222222",
"2222222222222222XX::11::1111XX111111::::::XX,,XX2222222222222222",
"2222222222222222XX1111::11::11XXXXXXXXXXXX,,XX222222222222222222",
"2222222222222222XX1111::11::11XXXXXXXXXXXX,,XX222222222222222222",
"2222222222222222XX::::1111::1111@@11@@,,oo,,XX222222222222222222",
"2222222222222222XX::::1111::1111@@11@@,,oo,,XX222222222222222222",
"22222222222222XX::::::XX11::1111XX@@XX,,##,,XX222222222222222222",
"22222222222222XX::::::XX11::1111XX@@XX,,##,,XX222222222222222222",
"22222222222222XX::::XX::1111::11@@11@@,,==XX22222222222222222222",
"22222222222222XX::::XX::1111::11@@11@@,,==XX22222222222222222222",
"22222222222222XX::XXXX::1111XX11XX@@XXXXXX2222222222222222222222",
"22222222222222XX::XXXX::1111XX11XX@@XXXXXX2222222222222222222222",
"2222222222222222XX22XX::11XX;;XXXX::11XXOO2222222222222222222222",
"2222222222222222XX22XX::11XX;;XXXX::11XXOO2222222222222222222222",
"22222222222222222222XX::XX..<<      XXXX          22222222222222",
"22222222222222222222XX::XX..<<      XXXX          22222222222222",
"22222222222222222222XX::XX..  --,,--  11XX33333333  222222222222",
"22222222222222222222XX::XX..  --,,--  11XX33333333  222222222222",
"22222222222222222222$$XX::XX  ,,,,,,  ::XX&&&&&&&&33  2222222222",
"22222222222222222222$$XX::XX  ,,,,,,  ::XX&&&&&&&&33  2222222222",
"22222222222222222222....XX%%  --,,--  XXXX33333333  222222222222",
"22222222222222222222....XX%%  --,,--  XXXX33333333  222222222222",
"22222222222222222222%%........      ++            22222222222222",
"22222222222222222222%%........      ++            22222222222222",
"22222222222222******%%..........<<<<  55>><<**222222222222222222",
"22222222222222******%%..........<<<<  55>><<**222222222222222222",
"222222222222**********%%........OO<<OOOO<<******2222222222222222",
"222222222222**********%%........OO<<OOOO<<******2222222222222222",
"222222222222************%%%%....OOOO<<<<********2222222222222222",
"222222222222************%%%%....OOOO<<<<********2222222222222222",
"22222222222222**************%%%%<<<<**********222222222222222222",
"22222222222222**************%%%%<<<<**********222222222222222222",
"22222222222222222222********************222222222222222222222222",
"22222222222222222222********************222222222222222222222222",
"2222222222222222222222222222222222222222222222222222222222222222",
"2222222222222222222222222222222222222222222222222222222222222222"
};
