/* XPM */
static char *result[] = {
/* columns rows colors chars-per-pixel */
"64 64 7 1 ",
"  c black",
". c #353540",
"X c #813E50",
"o c #968C94",
"O c #DD929F",
"+ c #D2D2D2",
"@ c #EAEAEA",
/* pixels */
"@@@@@@@@@@@@@@@@@@@@@@@@@@@@@@@@@@@@@@@@@@@@@@@@@@@@@@@@@@@@@@@@",
"@@@@@@@@@@@@@@@@@@@@@@@@@@@@@@@@@@@@@@@@@@@@@@@@@@@@@@@@@@@@@@@@",
"@@@@@@@@@@@@@@@@@@@@@@@@@@@@@@@@@@@@@@@@@@@@@@@@@@@@@@@@@@@@@@@@",
"@@@@@@@@@@@@@@@@@@@@@@@@@@@@@@@@@@@@@@@@@@@@@@@@@@@@@@@@@@@@@@@@",
"@@@@@@@@@@@@@@@@@@@@@@@@@@@@@@@@@@@@@@@@@@@@@@@@@@@@@@@@@@@@@@@@",
"@@@@@@@@@@@@@@@@@@@@@@@@@@@@@@@@@@@@@@@@@@@@@@@@@@@@@@@@@@@@@@@@",
"@@@@@@@@@@@@@@@@@@@@@@@@@@@@@@@@@@@@@@@@@@@@@@@@@@@@@@@@@@@@@@@@",
"@@@@@@@@@@@@@@@@@@@@@@@@@@@@@@@@@@@@@@@@@@@@@@@@@@@@@@@@@@@@@@@@",
"@@@@@@@@@@@@@@@@@@@@@@@@@@@@@@@@@@@@@@@@@@@@@@@@@@@@@@@@@@@@@@@@",
"@@@@@@@@@@@@@@@@@@@@@@@@@@@@@@@@@@@@@@@@@@@@@@@@@@@@@@@@@@@@@@@@",
"@@@@@@@@@@@@@@@@@@@@@@@@@@@@@@@@@@@@@@@@@@@@@@@@@@@@@@@@@@@@@@@@",
"@@@@@@@@@@@@@@@@@@@@@@@@@@@@@@@@@@@@@@@@@@@@@@@@@@@@@@@@@@@@@@@@",
"@@@@@@@@@@@@@@@@@@@@@@@@@@@@@@@@@@@@@@@@@@@@@@@@@@@@@@@@@@@@@@@@",
"@@@@@@@@@@@@@@@@@@@@@@@@@@@@@@@@@@@@@@@@@@@@@@@@@@@@@@@@@@@@@@@@",
"@@@@@@@@@@@@@@@@@@@@@@@@@@@@@@@@@@@@@@@@@@@@@@@@@@@@@@@@@@@@@@@@",
"@@@@@@@@@@@@@@@@@@@@@@@@@@@@@@@@@@@@@@@@@@@@@@@@@@@@@@@@@@@@@@@@",
"@@@@@@@@@@@@@@@@@@@@@@@@@@@@@@@@@@@@@@@@@@@@@@@@@@@@@@@@@@@@@@@@",
"@@@@@@@@@@@@@@@@@@@@@@@@@@@@@@@@@@@@@@@@@@@@@@@@@@@@@@@@@@@@@@@@",
"@@@@@@@@@@@@@@@@@@@@@@@@@@@@@@@@@@@@@@@@@@@@@@@@@@@@@@@@@@@@@@@@",
"@@@@@@@@@@@@@@@@@@@@@@@@@@@@@@@@@@@@@@@@@@@@@@@@@@@@@@@@@@@@@@@@",
"@@@@@@@@@@@@@@@@@@@@@@@@@@@@@@@@@@@@@@@@@@@@@@@@@@@@@@@@@@@@@@@@",
"@@@@@@@@@@@@@@@@@@@@@@@@@@@@@@@@@@@@@@@@@@@@@@@@@@@@@@@@@@@@@@@@",
"@@@@@@@@@@@@@@@@@@@@@@@@@@@@@@@@@@@@@@@@@@@@@@@@@@@@@@@@@@@@@@@@",
"@@@@@@@@@@@@@@@@@@@@@@@@@@@@.....@@@@@@@@@@@@@@@@@@@@@@@@@@@@@@@",
"@@@@@@@@@@@@@@@@@@@@@@@@@@@@.....@@@@@@@@@@@@@@@@@@@@@@@@@@@@@@@",
"@@@@@@@@@@@@@@@@@@@@@@@@@@..@@@@@...@@@@.......@@@@@@@@@@@@@@@@@",
"@@@@@@@@@@@@@@@@@@@@@@@@@@..@@@@@...@@@@.......@@@@@@@@@@@@@@@@@",
"@@@@@@@@@@@@@@@@@@@@@@@@..@@OOO@@...@@..@@@@@@@...@@@@@@@@@@@@@@",
"@@@@@@@@@@@@@@@@@@@@@@@@..@@OOO@@...@@..@@@@@@@...@@@@@@@@@@@@@@",
"@@@@@@@@@@@@@@@@@@@@@@@@..@@OOO@@...@@..@@@@@@@...@@@@@@@@@@@@@@",
"@@@@@@@@@@@@@@@@@@@@@@@@..@@OOO@@.....@@@@@@@@@@@@..@@@@@@@@@@@@",
"@@@@@@@@@@@@@@@@@@@@@@@@..@@OOO@@.....@@@@@@@@@@@@..@@@@@@@@@@@@",
"@@@@@@@@@@@@@@@@@@@@@@@@..@@OOO@@.....@@OOOoo.....@@@@@@@@@@@@@@",
"@@@@@@@@@@@@@@@@@@@@@@@@..@@OOO@@.....@@OOOoo.....@@@@@@@@@@@@@@",
"@@@@@@@@@@@@@@@@@@@@@@@@..@@OOO@@.....@@OOO@@..@@@@@@@@@@@@@@@@@",
"@@@@@@@@@@@@@@@@@@@@@@@@..@@OOO@@.....@@OOO@@..@@@@@@@@@@@@@@@@@",
"@@@@@@@@@@@@@@@@@@@@@@@@..@@OOO@@.....@@OOO@@..@@@@@@@@@@@@@@@@@",
"@@@@@@@@@@@@@@@@@@@@@@@@@@..@@@@@@@@@@@@@@@..@@@@@@@@@@@@@@@@@@@",
"@@@@@@@@@@@@@@@@@@@@@@@@@@..@@@@@@@@@@@@@@@..@@@@@@@@@@@@@@@@@@@",
"@@@@@@@@@@@@@@@@@@@@@@@@@@..@@@@@@@@@@@@@@@@@..@@@@@@@@@@@@@@@@@",
"@@@@@@@@@@@@@@@@@@@@@@@@@@..@@@@@@@@@@@@@@@@@..@@@@@@@@@@@@@@@@@",
"@@@@@@@@@@@@@@@@@@@@@@@@@@..@@@@@@@@@@@@@@@@@..@@@@@@@@@@@@@@@@@",
"@@@@@@@@@@@@@@@@@@@@@@@@@@..@@@@@@@@@@@@@@@@@..@@@@@@@@@@@@@@@@@",
"@@@@@@@@@@@@@@@@@@@@@@@@@@..@@@@@@@@@@@@@@@@@..@@@@@@@@@@@@@@@@@",
"@@@@@@@@@@@@@@@@@@@@@@@@..@@@@@@@   @@@@@@@  @@...@@@@@@@@@@@@@@",
"@@@@@@@@@@@@@@@@@@@@@@@@..@@@@@@@   @@@@@@@  @@...@@@@@@@@@@@@@@",
"@@@@@@@@@@@@@@@@@@@@@.....@@@@@@@   @@@@@@@  @@...@@@@@@@@@@@@@@",
"@@@@@@@@@@@@@@@@@@@@@.....@@@@@@@   @@@@@@@  @@...@@@@@@@@@@@@@@",
"@@@@@@@@@@@@@@@@@@@@@.....@@@@@@@   @@@@@@@  @@...@@@@@@@@@@@@@@",
"@@@@@@@@@@@@@@@@@....@@@oo@@@@@@@@@@@@XX@@@@@@@...@@@@@@@@@@@@@@",
"@@@@@@@@@@@@@@@@@....@@@oo@@@@@@@@@@@@XX@@@@@@@...@@@@@@@@@@@@@@",
"@@@@@@@@@@@@@@...@@oo@@@@@oo@@@@@@@@@@@@@@@@@..@@@@@@@@@@@@@@@@@",
"@@@@@@@@@@@@@@...@@oo@@@@@oo@@@@@@@@@@@@@@@@@..@@@@@@@@@@@@@@@@@",
"@@@@@@@@@@@@@@...@@ooooo@@@@ooooooooooooooo..++@@@@@@@@@@@@@@@@@",
"@@@@@@@@@@@@@@...@@ooooo@@@@ooooooooooooooo..++@@@@@@@@@@@@@@@@@",
"@@@@@@@@@@@@@@...@@ooooo@@@@ooooooooooooooo..++@@@@@@@@@@@@@@@@@",
"@@@@@@@@@@@@@@+++..........................++++@@@@@@@@@@@@@@@@@",
"@@@@@@@@@@@@@@+++..........................++++@@@@@@@@@@@@@@@@@",
"@@@@@@@@@@@@@@@@@++++++++++++++++++++++++++@@@@@@@@@@@@@@@@@@@@@",
"@@@@@@@@@@@@@@@@@++++++++++++++++++++++++++@@@@@@@@@@@@@@@@@@@@@",
"@@@@@@@@@@@@@@@@@@@+++++++++++++++++++++@@@@@@@@@@@@@@@@@@@@@@@@",
"@@@@@@@@@@@@@@@@@@@+++++++++++++++++++++@@@@@@@@@@@@@@@@@@@@@@@@",
"@@@@@@@@@@@@@@@@@@@+++++++++++++++++++++@@@@@@@@@@@@@@@@@@@@@@@@",
"@@@@@@@@@@@@@@@@@@@@@@@@@@@@@@@@@@@@@@@@@@@@@@@@@@@@@@@@@@@@@@@@"
};
