/* XPM */
static char *back1729806110[] = {
/* columns rows colors chars-per-pixel */
"32 32 18 1 ",
"  c black",
". c #1E1500",
"X c #263300",
"o c #440B04",
"O c #2C4800",
"+ c #436000",
"@ c #546000",
"# c #5F6B03",
"$ c #686D3C",
"% c #D6352A",
"& c #F56045",
"* c #788114",
"= c #919022",
"- c #8B9150",
"; c #9BA8B7",
": c #FF9D90",
"> c #EDCF85",
", c #FEE4CD",
/* pixels */
"--------------------------------",
"--------------------------------",
"---------------..---------------",
"------------OO.>>.OO------------",
"-----------.===*****.-----------",
"----------.X==******X.----------",
"----------.@XXXXXXXX@.----------",
"----------.X########X.----------",
"----------.XOOOOOOOOX.----------",
"---------o.XOOOOOOOOX.o---------",
"---------o&.OOOOOOOO.&o---------",
"---------o&&........&&o---------",
"--------oo&&%&%&%&&%&&oo--------",
"--------o&&%&&%&%&&%&&&o--------",
"--------o&&%&&%&&%&&o&&o--------",
"--------o&&%&&&&&%&&o%&o--------",
"--------o&&%&&%&&o%&o%&o--------",
"-------o%&%%&&%&&%o&o%%&o-------",
"-------o%&%o&%o&&%o%&o%%o-------",
"-------oo%oo&%o%&&o%%oooo-------",
"------- :o:o%o;o%&oo%%o: -------",
"------- ,,,o%oOo%%oOooo, -------",
"------- :,:ooOOOooOO :,: -------",
"--------   +OOOOOOOO+   --------",
"-----------.++OOOO++.-----------",
"--------$$$$..++++..$$$$--------",
"-------$$$$$  ....  $$$$$-------",
"-------$$$$$  $$$$  $$$$$-------",
"--------$$$$$$$$$$$$$$$$--------",
"-----------$$$$$$$$$$-----------",
"--------------------------------",
"--------------------------------"
};
