/* XPM */
static char *front1729806110[] = {
/* columns rows colors chars-per-pixel */
"32 32 30 1 ",
"  c black",
". c #1E1500",
"X c #00021E",
"o c #273101",
"O c #440B04",
"+ c #2C4800",
"@ c #435005",
"# c #436000",
"$ c #486000",
"% c #546000",
"& c #686D3C",
"* c #1B3457",
"= c #00415C",
"- c #822911",
"; c #D6352A",
": c #F56045",
"> c #788114",
", c #9A991A",
"< c #919022",
"1 c #8B9150",
"2 c #00969D",
"3 c #ED9185",
"4 c #FF9D90",
"5 c #FCBCA7",
"6 c #EDCF85",
"7 c #FFC39A",
"8 c #F9ECB2",
"9 c #B2B2CF",
"0 c #FEE4CD",
"q c white",
/* pixels */
"11111111111111111111111111111111",
"11111111111111111111111111111111",
"111111111111+......+111111111111",
"11111111111.<<>>>>>>.11111111111",
"1111111111.+<>>oo>>>+.1111111111",
"1111111111.%+o@88@o+%.1111111111",
"1111111111.+o668666o+.1111111111",
"1111111111.+$@6886@$+.O111111111",
"111111111O.+$o8@@8o$+.O111111111",
"111111111O-.$oo$$oo$.7:O11111111",
"111111111-::........7::O11111111",
"11111111O-;:::-33-::::;O11111111",
"11111111O-;;:O300O;:-;O:O1111111",
"11111111OOOOOO000OO-3OO:O1111111",
"11111111OO-O0=0000=0O-O::O111111",
"11111111-:--02000020-:-:O1111111",
"11111111O;;-O003300O-:;OO1111111",
"111111111-:O9OOOOOO9.-:-O1111111",
"11111111   O#q5555q#.   11111111",
"1111111 404 +9q**q9+ 404 1111111",
"1111111 000 +$,XX,$+ 000 1111111",
"1111111 404 +$,XX,$+ 404 1111111",
"11111111   #+$$$$$++#   11111111",
"11111111111.#>$$$+ #.11111111111",
"11111111111&..>>>$ .&11111111111",
"11111111&&&&  ....  &&&&11111111",
"1111111&&&&&  &&&&  &&&&&1111111",
"1111111&&&&&&&&&&&&&&&&&&1111111",
"11111111&&&&&&&&&&&&&&&&11111111",
"11111111111&&&&&&&&&&11111111111",
"11111111111111111111111111111111",
"11111111111111111111111111111111"
};
