/* XPM */
static char *left1729806111[] = {
/* columns rows colors chars-per-pixel */
"32 32 23 1 ",
"  c black",
". c #1E1500",
"X c #273101",
"o c #263300",
"O c #440B04",
"+ c #2C4800",
"@ c #436000",
"# c #486000",
"$ c #5F6B03",
"% c #686D3C",
"& c #00415C",
"* c #822911",
"= c #D6352A",
"- c #F56045",
"; c #788114",
": c #919022",
"> c #8B9150",
", c #00969D",
"< c #ED9185",
"1 c #FF9D90",
"2 c #FCBCA7",
"3 c #EDCF85",
"4 c #FEE4CD",
/* pixels */
">>>>>>>>>>>>>>>>>>>>>>>>>>>>>>>>",
">>>>>>>>>>>>>>>>>>>>>>>>>>>>>>>>",
">>>>>>>>>>>>++....++>>>>>>>>>>>>",
">>>>>>>>>>>.:::;;;;;.>>>>>>>>>>>",
">>>>>>>>>>.X::;;;;;;o.>>>>>>>>>>",
">>>>>>>>>>.3X+++++XX#.>>>>>>>>>>",
">>>>>>>>>O.33X$$$###o.>>>>>>>>>>",
">>>>>>>>O=.3X###++++o.>>>>>>>>>>",
">>>>>>>>O-.3X###++++o.O>>>>>>>>>",
">>>>>>>>O-O.####++++.-O>>>>>>>>>",
">>>>>>>O=OO-........-=O>>>>>>>>>",
">>>>>>>OO4O=---------==O>>>>>>>>",
">>>>>>>>O4O===---O--=-=O>>>>>>>>",
">>>>>>>>>O4OOOOOO-=-=--O>>>>>>>>",
">>>>>>>>>O4&4*-*--=--==O>>>>>>>>",
">>>>>>>>>O4,4O*O--=-O===O>>>>>>>",
">>>>>>>>>>O<4*-*-=--=O==O>>>>>>>",
">>>>>>>>>>>OOO*O-O--=OO=O>>>>>>>",
">>>>>>>>>>>.O-=OO2O-=O>O>>>>>>>>",
">>>>>>>>>>>.OOO   +O=O>>>>>>>>>>",
">>>>>>>>>> O-- 141 O=O>>>>>>>>>>",
">>>>>>>>>>.O== 444 =O.>>>>>>>>>>",
">>>>>>>>>>.OOO 141 O@.>>>>>>>>>>",
">>>>>>>>>>>. ;#   @@.>>>>>>>>>>>",
">>>>>>>>%%%%%.;;@@..%%%%>>>>>>>>",
">>>>>>>%%%%%%%....%%%%%%%>>>>>>>",
">>>>>>>%%%%%%%%  %%%%%%%%>>>>>>>",
">>>>>>>>%%%%%%%%%%%%%%%%>>>>>>>>",
">>>>>>>>>>>%%%%%%%%%%>>>>>>>>>>>",
">>>>>>>>>>>>>>>>>>>>>>>>>>>>>>>>",
">>>>>>>>>>>>>>>>>>>>>>>>>>>>>>>>",
">>>>>>>>>>>>>>>>>>>>>>>>>>>>>>>>"
};
