/* XPM */
static char *_d66f7aa954140458c96526283f89717gTirPtHrzdtAG4AM[] = {
/* columns rows colors chars-per-pixel */
"56 56 24 1 ",
"  c None",
". c black",
"X c #131225",
"o c #13223F",
"O c #6E1F09",
"+ c #282544",
"@ c #525970",
"# c #7E7A7A",
"$ c #439F20",
"% c #FF8F63",
"& c #7B7991",
"* c #92829A",
"= c #9C9C99",
"- c #ED9185",
"; c #FF9D90",
": c #FCBCA7",
"> c #9F9EC6",
", c #9FBDCE",
"< c #FEE4CD",
"1 c #D2D0E4",
"2 c #D8DDEF",
"3 c #EEEBE9",
"4 c #F3F5FD",
"5 c white",
/* pixels */
"                                                        ",
"                                                        ",
"                                                        ",
"                                                        ",
"                                                        ",
"                                                        ",
"                                                        ",
"                                                        ",
"                                                        ",
"                                                        ",
"                                                        ",
"                                                        ",
"                                                        ",
"                                                        ",
"                                                        ",
"                         @@oo@@                         ",
"                       @@24@@42@@                       ",
"                      @2442442442@                      ",
"                      o422@@@@@24o                      ",
"                     o>@@>22222>@>o                     ",
"                     o@42222222224>                     ",
"                     o@44442244442>                     ",
"                     @22222@@22222o                     ",
"                     o>222@--@2222o                     ",
"                     .>>2o-<<o>2@>>o                    ",
"                    .3.ooo<<<oo@-o>o                    ",
"                   .3=3.<O<<<<O<o@o                     ",
"                   .3=3.<%<<<<%<@2@                     ",
"                   .3=3.o<<--<<o@2@                     ",
"                   .3=3.5oooooo5&@2                     ",
"                   .....X5::::5X&...                    ",
"                   .;<;.1+5555+1.;<;.                   ",
"                  ..<<<..++$$++1.<<<.                   ",
"                   .;<;.X+$++$+X.;<;.                   ",
"                    ...X1++55++1X...                    ",
"                    .#.X15555551X&                      ",
"                    ...XX,5555,XX&                      ",
"                       *XX,,,,XX*                       ",
"                        11XXXX11                        ",
"                          1111                          ",
"                                                        ",
"                                                        ",
"                                                        ",
"                                                        ",
"                                                        ",
"                                                        ",
"                                                        ",
"                                                        ",
"                                                        ",
"                                                        ",
"                                                        ",
"                                                        ",
"                                                        ",
"                                                        ",
"                                                        ",
"                                                        "
};
