/* XPM */
static char *result[] = {
/* columns rows colors chars-per-pixel */
"64 64 6 1 ",
"  c #604B3D",
". c #353540",
"X c #735B42",
"o c #D9A6A6",
"O c #D2D2D2",
"+ c #EAEAEA",
/* pixels */
"++++++++++++++++++++++++++++++++++++++++++++++++++++++++++++++++",
"++++++++++++++++++++++++++++++++++++++++++++++++++++++++++++++++",
"++++++++++++++++++++++++++++++++++++++++++++++++++++++++++++++++",
"++++++++++++++++++++++++++++++++++++++++++++++++++++++++++++++++",
"++++++oo++++++++++++oo++++++++++++++++++++++++++++++++++++++++++",
"++++++oo++++++++++++oo++++++++++++++++++++++++++++++++++++++++++",
"++++oo++oo++++++++oo++oo++++++++++++++++++++++++++++++oo++++++++",
"++++oo++oo++++++++oo++oo++++++++++++++++++++++++++++++oo++++++++",
"++++++oo++++++++++++oo++++++++++++++++++++++++++++++oo++oo++++++",
"++++++oo++++++++++++oo++++++++++++++++++++++++++++++oo++oo++++++",
"++++++++++++++++++++++++++++++++++++++++++++++++++++++oo++++++++",
"++++++++++++++++++++++++++++++++++++++++++++++++++++++oo++++++++",
"++++++++++++++++++++++++++++++++++++oo++++++++++++++++++oo++++++",
"++++++++++++++++++++++++++++++++++++oo++++++++++++++++++oo++++++",
"++++++++++++++++++++++++++++++++++oo++oo++++++++++++++oo++oo++++",
"++++++++++++++++++++++++++++++++++oo++oo++++++++++++++oo++oo++++",
"++++++++++++++oo++++++++++++++++++++oo++++++++++++++++++oo++++++",
"++++++++++++++oo++++++++++++++++++++oo++++++++++++++++++oo++++++",
"++++++++++++oo++oo++++++++++++++++++++++++++++++++++++++++++++++",
"++++++++++++oo++oo++++++++++++++++++++++++++++++++++++++++++++++",
"++++++++++++++oo++++++++++++++++++++++++++++++++++++++++++++++++",
"++++++++++++++oo++++++++++++++++++++++++++++++++++++++++++++++++",
"++++++++++++++++++++++++++++++++++++++++++++++++oo++++++++++++++",
"++++++++++++++++++++++++++++++++++++++++++++++++oo++++++++++++++",
"++++++++++++++++++++++++++++++++++++++++++++++oo++oo++++++++++++",
"++++++++++++++++++++++++++++++++++++++++++++++oo++oo++++++++++++",
"++++++++++++++++++++++++++++++++++oo++++++++++++oo++++++++++++++",
"++++++++++++++++++++++++++++++++++oo++++++++++++oo++++++++++++++",
"++++++++++++++++oo++++++++++++++oo++oo++++++++++++++++++++++++++",
"++++++++++++++++oo++++++++++++++oo++oo++++++++++++++++++++++++++",
"++++oo++++++++oo++oo++++++++++++++oo++++++++++++++++++++++++++++",
"++++oo++++++++oo++oo++++++++++++++oo++++++++++++++++++++++++++++",
"++oo++oo++++++++oo++++++++++++++++++++++++++++++++++++++++++++++",
"++oo++oo++++++++oo++++++++++++++++++++++++++++++++++++++++++++++",
"++++oo++++++++++++++++++++++++++++++++++++++++++++++++++++++++++",
"++++oo++++++++++++++++++++++++++++++++++++++++++++++++++++++++++",
"++++++++++++++++++++++OOOOOOOOOOOOOOOOOOOO++++++++++++++++++++++",
"++++++++++++++++++++++OOOOOOOOOOOOOOOOOOOO++++++++++++++++++++++",
"++++++++++++++++OOOOOOOO................OOOOOOOO++++++++++oo++++",
"++++++++++++++++OOOOOOOO................OOOOOOOO++++++++++oo++++",
"++++++++++++++OOOO......                ......OOOO++++++oo++oo++",
"++++++++++++++OOOO......                ......OOOO++++++oo++oo++",
"++++++++++++OOOO..                            ..OOOO++++++oo++++",
"++++++++++++OOOO..                            ..OOOO++++++oo++++",
"++++++++++++OO..                                ..OO++++++++++++",
"++++++++++++OO..                                ..OO++++++++++++",
"++++++++++++OO..        XXXXXXXXXXXXXXXX        ..OO++++++++++++",
"++++++++++++OO..        XXXXXXXXXXXXXXXX        ..OO++++++++++++",
"++++++++++++OO..  XXXXXXXXXXXXXXXXXXXXXXXXXXXX  ..OO++++++++++++",
"++++++++++++OO..  XXXXXXXXXXXXXXXXXXXXXXXXXXXX  ..OO++++++++++++",
"++++++++++++OOOO..XXXXXXXXXXXXXXXXXXXXXXXXXXXX..OOOO++++++++++++",
"++++++++++++OOOO..XXXXXXXXXXXXXXXXXXXXXXXXXXXX..OOOO++++++++++++",
"++++++++++++++OOOO......XXXXXXXXXXXXXXXX......OOOO++++++++++++++",
"++++++++++++++OOOO......XXXXXXXXXXXXXXXX......OOOO++++++++++++++",
"++++++oo++++++++OOOOOOOO................OOOOOOOO++++++++oo++++++",
"++++++oo++++++++OOOOOOOO................OOOOOOOO++++++++oo++++++",
"++++oo++oo++++++++++++OOOOOOOOOOOOOOOOOOOO++++++++++++oo++oo++++",
"++++oo++oo++++++++++++OOOOOOOOOOOOOOOOOOOO++++++++++++oo++oo++++",
"++++++oo++++++++++++++++++++++++++++++++++++++++++++++++oo++++++",
"++++++oo++++++++++++++++++++++++++++++++++++++++++++++++oo++++++",
"++++++++++++++++++++++++++++++++++++++++++++++++++++++++++++++++",
"++++++++++++++++++++++++++++++++++++++++++++++++++++++++++++++++",
"++++++++++++++++++++++++++++++++++++++++++++++++++++++++++++++++",
"++++++++++++++++++++++++++++++++++++++++++++++++++++++++++++++++"
};
