/* XPM */
static char *result[] = {
/* columns rows colors chars-per-pixel */
"64 64 2 1 ",
"  c #D2D2D2",
". c #EAEAEA",
/* pixels */
"................................................................",
"................................................................",
"................................................................",
"................................................................",
"................................................................",
"................................................................",
"................................................................",
"................................................................",
"................................................................",
"................................................................",
"................................................................",
"................................................................",
"................................................................",
"................................................................",
"........................    ....                ................",
"........................    ....                ................",
"........................    ....                ................",
"........................    ....                ................",
"................................                ................",
"................................                ................",
"................................                ................",
"................................                ................",
"................            ....                ................",
"................            ....                ................",
"................            ....                ................",
"................            ....                ................",
"................            ....                ................",
"................            ....                ................",
"................            ....                ................",
"................            ....                ................",
"................            ....................................",
"................            ....................................",
"................            ....................................",
"................            ....................................",
"................            ....................................",
"................            ....................................",
"................................            ....................",
"................................            ....................",
"................................            ....................",
"................................            ....................",
"........................    ....            ....................",
"........................    ....            ....................",
"........................    ....            ....................",
"........................    ....            ....................",
"................................            ....................",
"................................            ....................",
"................................            ....................",
"................................            ....................",
"................................................................",
"................................................................",
"................................................................",
"................................................................",
"................................................................",
"................................................................",
"................................................................",
"................................................................",
"................................................................",
"................................................................",
"................................................................",
"................................................................",
"................................................................",
"................................................................",
"................................................................",
"................................................................"
};
