/* XPM */
static char *result[] = {
/* columns rows colors chars-per-pixel */
"64 64 8 1 ",
"  c #604B3D",
". c #353540",
"X c #735B42",
"o c #BC87A5",
"O c #D9A6A6",
"+ c #D2D2D2",
"@ c #EDE4DA",
"# c #EAEAEA",
/* pixels */
"####################........................####################",
"####################........................####################",
"#################.....OOOOOOOOOOOOOOO@@@@@.....#################",
"#################.....OOOOOOOOOOOOOOO@@@@@.....#################",
"#################.....OOOOOOOOOOOOOOO@@@@@.....#################",
"#################...OOOOOOOOOOOOOOOOOOO@@@@@...#################",
"#################...OOOOOOOOOOOOOOOOOOO@@@@@...#################",
"#################...OOOOOOOOOOOOOOOOOOOOOOOO...#################",
"#################...OOOOOOOOOOOOOOOOOOOOOOOO...#################",
"#################...OOOOOOOOOOOOOOOOOOOOOOOO...#################",
"#################...OOOOOOOOOOOOOOOOOOOOOOOO...#################",
"#################...OOOOOOOOOOOOOOOOOOOOOOOO...#################",
"#################...OOOOOOOOOOOOOOOOOOOOOOOO..........##########",
"#################...OOOOOOOOOOOOOOOOOOOOOOOO..........##########",
"#################...OOOOOOOOOOOOOOOOOOOOOOOO..........##########",
"##########..........OOOOOOOOOOOOOOOOOOOOOOOOOOO@@@@@.....#######",
"##########..........OOOOOOOOOOOOOOOOOOOOOOOOOOO@@@@@.....#######",
"#######.....OOOOO@@@OOOOOOOOOOOOOOOOOOOOOOOOOOOOO@@@@@...#######",
"#######.....OOOOO@@@OOOOOOOOOOOOOOOOOOOOOOOOOOOOO@@@@@...#######",
"#######.....OOOOO@@@OOOOOOOOOOOOOOOOOOOOOOOOOOOOO@@@@@...#######",
"#######...OOOOOOOOOOOOOOOOOOOOOOOOOOOOOOOOOOOOOOOOOOOO...#######",
"#######...OOOOOOOOOOOOOOOOOOOOOOOOOOOOOOOOOOOOOOOOOOOO...#######",
"#######...OOOOOOOOOOooOOOOOOOOOOOOOOOOOOOOooOOOOOOOOoo...#######",
"#######...OOOOOOOOOOooOOOOOOOOOOOOOOOOOOOOooOOOOOOOOoo...#######",
"#######...OOOOOOOOOOooOOOOOOOOOOOOOOOOOOOOooOOOOOOOOoo...#######",
"#######...ooOOOOOOOOoooooooooooooooooooooooooooooooooo...#######",
"#######...ooOOOOOOOOoooooooooooooooooooooooooooooooooo...#######",
"#######...oooooooooooooooooooooooooooooooooooooooooo.....#######",
"#######...oooooooooooooooooooooooooooooooooooooooooo.....#######",
"#######...oooooooooooooooooooooooooooooooooooooooooo.....#######",
"#######.....oooooooooooooooooooooooooooooooo        ..##########",
"#######.....oooooooooooooooooooooooooooooooo        ..##########",
"##########..        ooooooooooooooooooooooooXXXXX.....##########",
"##########..        ooooooooooooooooooooooooXXXXX.....##########",
"##########.....XXXXXoooooooooooooooooooooooo........############",
"##########.....XXXXXoooooooooooooooooooooooo........############",
"##########.....XXXXXoooooooooooooooooooooooo........############",
"############........oooooooooooooooooooooooo...#################",
"############........oooooooooooooooooooooooo...#################",
"#################...oooooooooooooooooooooooo...#################",
"#################...oooooooooooooooooooooooo...#################",
"#################...oooooooooooooooooooooooo...#################",
"#################.....oooooooooooooooooooo.....#################",
"#################.....oooooooooooooooooooo.....#################",
"#################+++.......          .......+++#################",
"#################+++.......          .......+++#################",
"#################+++.......          .......+++#################",
"#################+++++.....XXXXXXXXXX.....+++++#################",
"#################+++++.....XXXXXXXXXX.....+++++#################",
"#################+++++...XXXXXXXXXXXXXX...+++++#################",
"#################+++++...XXXXXXXXXXXXXX...+++++#################",
"#################+++++...XXXXXXXXXXXXXX...+++++#################",
"#################+++++...XXXXXXXXXXXXXX...+++++#################",
"#################+++++...XXXXXXXXXXXXXX...+++++#################",
"#################+++++.....XXXXXXXXXX.....+++++#################",
"#################+++++.....XXXXXXXXXX.....+++++#################",
"#################+++++.....XXXXXXXXXX.....+++++#################",
"#################++++++++..............++++++++#################",
"#################++++++++..............++++++++#################",
"#################++++++++++++++++++++++++++++++#################",
"#################++++++++++++++++++++++++++++++#################",
"#################++++++++++++++++++++++++++++++#################",
"####################++++++++++++++++++++++++####################",
"####################++++++++++++++++++++++++####################"
};
